<?xml version="1.0" standalone="no"?><!DOCTYPE svg PUBLIC "-//W3C//DTD SVG 1.1//EN" "http://www.w3.org/Graphics/SVG/1.1/DTD/svg11.dtd"><svg t="1650084096763" class="icon" viewBox="0 0 1024 1024" version="1.1" xmlns="http://www.w3.org/2000/svg" p-id="1647" xmlns:xlink="http://www.w3.org/1999/xlink" width="200" height="200"><defs><style type="text/css">@font-face { font-family: "feedback-iconfont"; src: url("//at.alicdn.com/t/font_1031158_u69w8yhxdu.woff2?t=1630033759944") format("woff2"), url("//at.alicdn.com/t/font_1031158_u69w8yhxdu.woff?t=1630033759944") format("woff"), url("//at.alicdn.com/t/font_1031158_u69w8yhxdu.ttf?t=1630033759944") format("truetype"); }
</style></defs><path d="M175.7184 20.48h51.8144v51.8144H175.7184zM227.5328 20.48h51.8144v51.8144h-51.8144z" fill="#553A49" p-id="1648"></path><path d="M279.1424 20.48h51.8144v51.8144h-51.8144zM330.9568 20.48h51.8144v51.8144h-51.8144z" fill="#553A49" p-id="1649"></path><path d="M382.5664 20.48h51.8144v51.8144h-51.8144zM434.3808 20.48h51.8144v51.8144h-51.8144z" fill="#553A49" p-id="1650"></path><path d="M486.1952 20.48h51.8144v51.8144h-51.8144z" fill="#553A49" p-id="1651"></path><path d="M537.8048 20.48h51.8144v51.8144h-51.8144z" fill="#553A49" p-id="1652"></path><path d="M589.6192 20.48h51.8144v51.8144h-51.8144zM641.4336 20.48h51.8144v51.8144h-51.8144z" fill="#553A49" p-id="1653"></path><path d="M693.0432 20.48h51.8144v51.8144h-51.8144z" fill="#553A49" p-id="1654"></path><path d="M744.8576 20.48h51.8144v51.8144h-51.8144z" fill="#553A49" p-id="1655"></path><path d="M796.4672 20.48h51.8144v51.8144h-51.8144z" fill="#553A49" p-id="1656"></path><path d="M175.7184 72.2944h51.8144v51.8144H175.7184zM227.5328 72.2944h51.8144v51.8144h-51.8144z" fill="#50D3FF" p-id="1657"></path><path d="M279.1424 72.2944h51.8144v51.8144h-51.8144zM330.9568 72.2944h51.8144v51.8144h-51.8144z" fill="#50D3FF" p-id="1658"></path><path d="M382.5664 72.2944h51.8144v51.8144h-51.8144zM434.3808 72.2944h51.8144v51.8144h-51.8144z" fill="#50D3FF" p-id="1659"></path><path d="M486.1952 72.2944h51.8144v51.8144h-51.8144z" fill="#50D3FF" p-id="1660"></path><path d="M537.8048 72.2944h51.8144v51.8144h-51.8144z" fill="#50D3FF" p-id="1661"></path><path d="M589.6192 72.2944h51.8144v51.8144h-51.8144zM641.4336 72.2944h51.8144v51.8144h-51.8144z" fill="#50D3FF" p-id="1662"></path><path d="M693.0432 72.2944h51.8144v51.8144h-51.8144z" fill="#50D3FF" p-id="1663"></path><path d="M744.8576 72.2944h51.8144v51.8144h-51.8144z" fill="#50D3FF" p-id="1664"></path><path d="M796.4672 72.2944h51.8144v51.8144h-51.8144z" fill="#50D3FF" p-id="1665"></path><path d="M175.7184 123.904h51.8144v51.8144H175.7184zM227.5328 123.904h51.8144v51.8144h-51.8144z" fill="#42C1F6" p-id="1666"></path><path d="M279.1424 123.904h51.8144v51.8144h-51.8144zM330.9568 123.904h51.8144v51.8144h-51.8144z" fill="#42C1F6" p-id="1667"></path><path d="M382.5664 123.904h51.8144v51.8144h-51.8144zM434.3808 123.904h51.8144v51.8144h-51.8144z" fill="#42C1F6" p-id="1668"></path><path d="M486.1952 123.904h51.8144v51.8144h-51.8144z" fill="#42C1F6" p-id="1669"></path><path d="M537.8048 123.904h51.8144v51.8144h-51.8144z" fill="#42C1F6" p-id="1670"></path><path d="M589.6192 123.904h51.8144v51.8144h-51.8144zM641.4336 123.904h51.8144v51.8144h-51.8144z" fill="#42C1F6" p-id="1671"></path><path d="M693.0432 123.904h51.8144v51.8144h-51.8144z" fill="#42C1F6" p-id="1672"></path><path d="M744.8576 123.904h51.8144v51.8144h-51.8144z" fill="#42C1F6" p-id="1673"></path><path d="M796.4672 123.904h51.8144v51.8144h-51.8144zM796.4672 175.7184h51.8144v51.8144h-51.8144zM796.4672 227.5328h51.8144v51.8144h-51.8144z" fill="#42C1F6" p-id="1674"></path><path d="M796.4672 279.1424h51.8144v51.8144h-51.8144zM796.4672 330.9568h51.8144v51.8144h-51.8144zM175.7184 175.7184h51.8144v51.8144H175.7184zM227.5328 175.7184h51.8144v51.8144h-51.8144z" fill="#42C1F6" p-id="1675"></path><path d="M279.1424 175.7184h51.8144v51.8144h-51.8144zM330.9568 175.7184h51.8144v51.8144h-51.8144z" fill="#42C1F6" p-id="1676"></path><path d="M382.5664 175.7184h51.8144v51.8144h-51.8144zM434.3808 175.7184h51.8144v51.8144h-51.8144z" fill="#42C1F6" p-id="1677"></path><path d="M486.1952 175.7184h51.8144v51.8144h-51.8144z" fill="#42C1F6" p-id="1678"></path><path d="M537.8048 175.7184h51.8144v51.8144h-51.8144z" fill="#42C1F6" p-id="1679"></path><path d="M589.6192 175.7184h51.8144v51.8144h-51.8144zM641.4336 175.7184h51.8144v51.8144h-51.8144z" fill="#42C1F6" p-id="1680"></path><path d="M693.0432 175.7184h51.8144v51.8144h-51.8144z" fill="#42C1F6" p-id="1681"></path><path d="M744.8576 175.7184h51.8144v51.8144h-51.8144zM175.7184 227.5328h51.8144v51.8144H175.7184zM227.5328 227.5328h51.8144v51.8144h-51.8144z" fill="#42C1F6" p-id="1682"></path><path d="M279.1424 227.5328h51.8144v51.8144h-51.8144zM330.9568 227.5328h51.8144v51.8144h-51.8144z" fill="#42C1F6" p-id="1683"></path><path d="M382.5664 227.5328h51.8144v51.8144h-51.8144z" fill="#FFFFFF" p-id="1684"></path><path d="M382.5664 279.1424h51.8144v51.8144h-51.8144zM434.3808 227.5328h51.8144v51.8144h-51.8144z" fill="#FFFFFF" p-id="1685"></path><path d="M486.1952 227.5328h51.8144v51.8144h-51.8144z" fill="#FFFFFF" p-id="1686"></path><path d="M537.8048 227.5328h51.8144v51.8144h-51.8144z" fill="#FFFFFF" p-id="1687"></path><path d="M589.6192 227.5328h51.8144v51.8144h-51.8144z" fill="#FFFFFF" p-id="1688"></path><path d="M641.4336 227.5328h51.8144v51.8144h-51.8144z" fill="#42C1F6" p-id="1689"></path><path d="M693.0432 227.5328h51.8144v51.8144h-51.8144z" fill="#42C1F6" p-id="1690"></path><path d="M744.8576 227.5328h51.8144v51.8144h-51.8144zM175.7184 279.1424h51.8144v51.8144H175.7184zM227.5328 279.1424h51.8144v51.8144h-51.8144z" fill="#42C1F6" p-id="1691"></path><path d="M279.1424 279.1424h51.8144v51.8144h-51.8144zM330.9568 279.1424h51.8144v51.8144h-51.8144z" fill="#42C1F6" p-id="1692"></path><path d="M382.5664 279.1424h51.8144v51.8144h-51.8144z" fill="#FFFFFF" p-id="1693"></path><path d="M434.3808 279.1424h51.8144v51.8144h-51.8144z" fill="#42C1F6" p-id="1694"></path><path d="M486.1952 279.1424h51.8144v51.8144h-51.8144z" fill="#42C1F6" p-id="1695"></path><path d="M537.8048 279.1424h51.8144v51.8144h-51.8144z" fill="#42C1F6" p-id="1696"></path><path d="M589.6192 279.1424h51.8144v51.8144h-51.8144z" fill="#42C1F6" p-id="1697"></path><path d="M641.4336 279.1424h51.8144v51.8144h-51.8144z" fill="#FFFFFF" p-id="1698"></path><path d="M693.0432 279.1424h51.8144v51.8144h-51.8144z" fill="#42C1F6" p-id="1699"></path><path d="M744.8576 279.1424h51.8144v51.8144h-51.8144zM175.7184 330.9568h51.8144v51.8144H175.7184zM227.5328 330.9568h51.8144v51.8144h-51.8144z" fill="#42C1F6" p-id="1700"></path><path d="M279.1424 330.9568h51.8144v51.8144h-51.8144zM330.9568 330.9568h51.8144v51.8144h-51.8144z" fill="#42C1F6" p-id="1701"></path><path d="M382.5664 330.9568h51.8144v51.8144h-51.8144z" fill="#FFFFFF" p-id="1702"></path><path d="M434.3808 330.9568h51.8144v51.8144h-51.8144z" fill="#42C1F6" p-id="1703"></path><path d="M486.1952 330.9568h51.8144v51.8144h-51.8144z" fill="#42C1F6" p-id="1704"></path><path d="M537.8048 330.9568h51.8144v51.8144h-51.8144z" fill="#42C1F6" p-id="1705"></path><path d="M589.6192 330.9568h51.8144v51.8144h-51.8144z" fill="#42C1F6" p-id="1706"></path><path d="M641.4336 330.9568h51.8144v51.8144h-51.8144z" fill="#FFFFFF" p-id="1707"></path><path d="M693.0432 330.9568h51.8144v51.8144h-51.8144z" fill="#42C1F6" p-id="1708"></path><path d="M744.8576 330.9568h51.8144v51.8144h-51.8144z" fill="#42C1F6" p-id="1709"></path><path d="M175.7184 382.5664h51.8144v51.8144H175.7184zM227.5328 382.5664h51.8144v51.8144h-51.8144z" fill="#28B6F4" p-id="1710"></path><path d="M279.1424 382.5664h51.8144v51.8144h-51.8144zM330.9568 382.5664h51.8144v51.8144h-51.8144z" fill="#28B6F4" p-id="1711"></path><path d="M382.5664 382.5664h51.8144v51.8144h-51.8144z" fill="#FFFFFF" p-id="1712"></path><path d="M434.3808 382.5664h51.8144v51.8144h-51.8144z" fill="#28B6F4" p-id="1713"></path><path d="M486.1952 382.5664h51.8144v51.8144h-51.8144z" fill="#28B6F4" p-id="1714"></path><path d="M537.8048 382.5664h51.8144v51.8144h-51.8144z" fill="#28B6F4" p-id="1715"></path><path d="M589.6192 382.5664h51.8144v51.8144h-51.8144z" fill="#28B6F4" p-id="1716"></path><path d="M641.4336 382.5664h51.8144v51.8144h-51.8144z" fill="#FFFFFF" p-id="1717"></path><path d="M693.0432 382.5664h51.8144v51.8144h-51.8144z" fill="#28B6F4" p-id="1718"></path><path d="M744.8576 382.5664h51.8144v51.8144h-51.8144z" fill="#28B6F4" p-id="1719"></path><path d="M796.4672 382.5664h51.8144v51.8144h-51.8144zM796.4672 434.3808h51.8144v51.8144h-51.8144z" fill="#28B6F4" p-id="1720"></path><path d="M796.4672 486.1952h51.8144v51.8144h-51.8144z" fill="#28B6F4" p-id="1721"></path><path d="M796.4672 537.8048h51.8144v51.8144h-51.8144z" fill="#28B6F4" p-id="1722"></path><path d="M796.4672 589.6192h51.8144v51.8144h-51.8144zM796.4672 641.4336h51.8144v51.8144h-51.8144z" fill="#28B6F4" p-id="1723"></path><path d="M796.4672 693.0432h51.8144v51.8144h-51.8144z" fill="#28B6F4" p-id="1724"></path><path d="M744.8576 693.0432h51.8144v51.8144h-51.8144z" fill="#28B6F4" p-id="1725"></path><path d="M693.0432 693.0432h51.8144v51.8144h-51.8144z" fill="#28B6F4" p-id="1726"></path><path d="M641.4336 693.0432h51.8144v51.8144h-51.8144zM589.6192 693.0432h51.8144v51.8144h-51.8144z" fill="#28B6F4" p-id="1727"></path><path d="M537.8048 693.0432h51.8144v51.8144h-51.8144z" fill="#28B6F4" p-id="1728"></path><path d="M486.1952 693.0432h51.8144v51.8144h-51.8144z" fill="#28B6F4" p-id="1729"></path><path d="M434.3808 693.0432h51.8144v51.8144h-51.8144zM382.5664 693.0432h51.8144v51.8144h-51.8144z" fill="#28B6F4" p-id="1730"></path><path d="M330.9568 693.0432h51.8144v51.8144h-51.8144zM279.1424 693.0432h51.8144v51.8144h-51.8144z" fill="#28B6F4" p-id="1731"></path><path d="M227.5328 693.0432h51.8144v51.8144h-51.8144zM175.7184 693.0432h51.8144v51.8144H175.7184zM175.7184 434.3808h51.8144v51.8144H175.7184zM227.5328 434.3808h51.8144v51.8144h-51.8144z" fill="#28B6F4" p-id="1732"></path><path d="M279.1424 434.3808h51.8144v51.8144h-51.8144zM330.9568 434.3808h51.8144v51.8144h-51.8144z" fill="#28B6F4" p-id="1733"></path><path d="M382.5664 434.3808h51.8144v51.8144h-51.8144z" fill="#FFFFFF" p-id="1734"></path><path d="M434.3808 434.3808h51.8144v51.8144h-51.8144z" fill="#28B6F4" p-id="1735"></path><path d="M486.1952 434.3808h51.8144v51.8144h-51.8144z" fill="#28B6F4" p-id="1736"></path><path d="M537.8048 434.3808h51.8144v51.8144h-51.8144z" fill="#28B6F4" p-id="1737"></path><path d="M589.6192 434.3808h51.8144v51.8144h-51.8144z" fill="#28B6F4" p-id="1738"></path><path d="M641.4336 434.3808h51.8144v51.8144h-51.8144z" fill="#FFFFFF" p-id="1739"></path><path d="M693.0432 434.3808h51.8144v51.8144h-51.8144z" fill="#28B6F4" p-id="1740"></path><path d="M744.8576 434.3808h51.8144v51.8144h-51.8144zM175.7184 486.1952h51.8144v51.8144H175.7184zM227.5328 486.1952h51.8144v51.8144h-51.8144z" fill="#28B6F4" p-id="1741"></path><path d="M279.1424 486.1952h51.8144v51.8144h-51.8144zM330.9568 486.1952h51.8144v51.8144h-51.8144z" fill="#28B6F4" p-id="1742"></path><path d="M382.5664 486.1952h51.8144v51.8144h-51.8144zM434.3808 486.1952h51.8144v51.8144h-51.8144z" fill="#FFFFFF" p-id="1743"></path><path d="M486.1952 486.1952h51.8144v51.8144h-51.8144z" fill="#FFFFFF" p-id="1744"></path><path d="M537.8048 486.1952h51.8144v51.8144h-51.8144z" fill="#FFFFFF" p-id="1745"></path><path d="M589.6192 486.1952h51.8144v51.8144h-51.8144z" fill="#FFFFFF" p-id="1746"></path><path d="M641.4336 486.1952h51.8144v51.8144h-51.8144z" fill="#28B6F4" p-id="1747"></path><path d="M693.0432 486.1952h51.8144v51.8144h-51.8144z" fill="#28B6F4" p-id="1748"></path><path d="M744.8576 486.1952h51.8144v51.8144h-51.8144zM175.7184 537.8048h51.8144v51.8144H175.7184zM227.5328 537.8048h51.8144v51.8144h-51.8144z" fill="#28B6F4" p-id="1749"></path><path d="M279.1424 537.8048h51.8144v51.8144h-51.8144zM330.9568 537.8048h51.8144v51.8144h-51.8144z" fill="#28B6F4" p-id="1750"></path><path d="M382.5664 537.8048h51.8144v51.8144h-51.8144z" fill="#FFFFFF" p-id="1751"></path><path d="M434.3808 537.8048h51.8144v51.8144h-51.8144z" fill="#28B6F4" p-id="1752"></path><path d="M486.1952 537.8048h51.8144v51.8144h-51.8144z" fill="#28B6F4" p-id="1753"></path><path d="M537.8048 537.8048h51.8144v51.8144h-51.8144z" fill="#28B6F4" p-id="1754"></path><path d="M589.6192 537.8048h51.8144v51.8144h-51.8144zM641.4336 537.8048h51.8144v51.8144h-51.8144z" fill="#28B6F4" p-id="1755"></path><path d="M693.0432 537.8048h51.8144v51.8144h-51.8144z" fill="#28B6F4" p-id="1756"></path><path d="M744.8576 537.8048h51.8144v51.8144h-51.8144zM175.7184 589.6192h51.8144v51.8144H175.7184zM227.5328 589.6192h51.8144v51.8144h-51.8144z" fill="#28B6F4" p-id="1757"></path><path d="M279.1424 589.6192h51.8144v51.8144h-51.8144zM330.9568 589.6192h51.8144v51.8144h-51.8144z" fill="#28B6F4" p-id="1758"></path><path d="M382.5664 589.6192h51.8144v51.8144h-51.8144z" fill="#FFFFFF" p-id="1759"></path><path d="M434.3808 589.6192h51.8144v51.8144h-51.8144z" fill="#28B6F4" p-id="1760"></path><path d="M486.1952 589.6192h51.8144v51.8144h-51.8144z" fill="#28B6F4" p-id="1761"></path><path d="M537.8048 589.6192h51.8144v51.8144h-51.8144z" fill="#28B6F4" p-id="1762"></path><path d="M589.6192 589.6192h51.8144v51.8144h-51.8144zM641.4336 589.6192h51.8144v51.8144h-51.8144z" fill="#28B6F4" p-id="1763"></path><path d="M693.0432 589.6192h51.8144v51.8144h-51.8144z" fill="#28B6F4" p-id="1764"></path><path d="M744.8576 589.6192h51.8144v51.8144h-51.8144zM175.7184 641.4336h51.8144v51.8144H175.7184zM227.5328 641.4336h51.8144v51.8144h-51.8144z" fill="#28B6F4" p-id="1765"></path><path d="M279.1424 641.4336h51.8144v51.8144h-51.8144zM330.9568 641.4336h51.8144v51.8144h-51.8144z" fill="#28B6F4" p-id="1766"></path><path d="M382.5664 641.4336h51.8144v51.8144h-51.8144z" fill="#FFFFFF" p-id="1767"></path><path d="M434.3808 641.4336h51.8144v51.8144h-51.8144z" fill="#28B6F4" p-id="1768"></path><path d="M486.1952 641.4336h51.8144v51.8144h-51.8144z" fill="#28B6F4" p-id="1769"></path><path d="M537.8048 641.4336h51.8144v51.8144h-51.8144z" fill="#28B6F4" p-id="1770"></path><path d="M589.6192 641.4336h51.8144v51.8144h-51.8144zM641.4336 641.4336h51.8144v51.8144h-51.8144z" fill="#28B6F4" p-id="1771"></path><path d="M693.0432 641.4336h51.8144v51.8144h-51.8144z" fill="#28B6F4" p-id="1772"></path><path d="M744.8576 641.4336h51.8144v51.8144h-51.8144z" fill="#28B6F4" p-id="1773"></path><path d="M175.7184 744.8576h51.8144v51.8144H175.7184zM227.5328 744.8576h51.8144v51.8144h-51.8144z" fill="#553A49" p-id="1774"></path><path d="M279.1424 744.8576h51.8144v51.8144h-51.8144zM330.9568 744.8576h51.8144v51.8144h-51.8144z" fill="#553A49" p-id="1775"></path><path d="M382.5664 744.8576h51.8144v51.8144h-51.8144zM434.3808 744.8576h51.8144v51.8144h-51.8144z" fill="#553A49" p-id="1776"></path><path d="M434.3808 796.4672h51.8144v51.8144h-51.8144zM434.3808 848.2816h51.8144v51.8144h-51.8144zM434.3808 900.096h51.8144v51.8144h-51.8144z" fill="#553A49" p-id="1777"></path><path d="M434.3808 951.7056h51.8144V1003.52h-51.8144zM382.5664 951.7056h51.8144V1003.52h-51.8144z" fill="#553A49" p-id="1778"></path><path d="M330.9568 951.7056h51.8144V1003.52h-51.8144zM486.1952 951.7056h51.8144V1003.52h-51.8144z" fill="#553A49" p-id="1779"></path><path d="M537.8048 951.7056h51.8144V1003.52h-51.8144z" fill="#553A49" p-id="1780"></path><path d="M589.6192 951.7056h51.8144V1003.52h-51.8144zM641.4336 951.7056h51.8144V1003.52h-51.8144zM486.1952 744.8576h51.8144v51.8144h-51.8144z" fill="#553A49" p-id="1781"></path><path d="M486.1952 796.4672h51.8144v51.8144h-51.8144z" fill="#94BDCF" p-id="1782"></path><path d="M486.1952 848.2816h51.8144v51.8144h-51.8144zM486.1952 900.096h51.8144v51.8144h-51.8144z" fill="#ACD9EC" p-id="1783"></path><path d="M537.8048 744.8576h51.8144v51.8144h-51.8144z" fill="#553A49" p-id="1784"></path><path d="M537.8048 796.4672h51.8144v51.8144h-51.8144zM537.8048 848.2816h51.8144v51.8144h-51.8144zM537.8048 900.096h51.8144v51.8144h-51.8144z" fill="#553A49" p-id="1785"></path><path d="M589.6192 744.8576h51.8144v51.8144h-51.8144zM641.4336 744.8576h51.8144v51.8144h-51.8144z" fill="#553A49" p-id="1786"></path><path d="M693.0432 744.8576h51.8144v51.8144h-51.8144z" fill="#553A49" p-id="1787"></path><path d="M744.8576 744.8576h51.8144v51.8144h-51.8144z" fill="#553A49" p-id="1788"></path><path d="M796.4672 744.8576h51.8144v51.8144h-51.8144zM848.2816 72.2944h51.8144v51.8144h-51.8144z" fill="#553A49" p-id="1789"></path><path d="M848.2816 123.904h51.8144v51.8144h-51.8144zM848.2816 175.7184h51.8144v51.8144h-51.8144zM848.2816 227.5328h51.8144v51.8144h-51.8144z" fill="#553A49" p-id="1790"></path><path d="M848.2816 279.1424h51.8144v51.8144h-51.8144zM848.2816 330.9568h51.8144v51.8144h-51.8144z" fill="#553A49" p-id="1791"></path><path d="M848.2816 382.5664h51.8144v51.8144h-51.8144zM848.2816 434.3808h51.8144v51.8144h-51.8144z" fill="#553A49" p-id="1792"></path><path d="M848.2816 486.1952h51.8144v51.8144h-51.8144z" fill="#553A49" p-id="1793"></path><path d="M848.2816 537.8048h51.8144v51.8144h-51.8144z" fill="#553A49" p-id="1794"></path><path d="M848.2816 589.6192h51.8144v51.8144h-51.8144zM848.2816 641.4336h51.8144v51.8144h-51.8144z" fill="#553A49" p-id="1795"></path><path d="M848.2816 693.0432h51.8144v51.8144h-51.8144zM123.904 72.2944h51.8144v51.8144H123.904z" fill="#553A49" p-id="1796"></path><path d="M123.904 123.904h51.8144v51.8144H123.904zM123.904 175.7184h51.8144v51.8144H123.904zM123.904 227.5328h51.8144v51.8144H123.904z" fill="#553A49" p-id="1797"></path><path d="M123.904 279.1424h51.8144v51.8144H123.904zM123.904 330.9568h51.8144v51.8144H123.904z" fill="#553A49" p-id="1798"></path><path d="M123.904 382.5664h51.8144v51.8144H123.904zM123.904 434.3808h51.8144v51.8144H123.904z" fill="#553A49" p-id="1799"></path><path d="M123.904 486.1952h51.8144v51.8144H123.904z" fill="#553A49" p-id="1800"></path><path d="M123.904 537.8048h51.8144v51.8144H123.904z" fill="#553A49" p-id="1801"></path><path d="M123.904 589.6192h51.8144v51.8144H123.904zM123.904 641.4336h51.8144v51.8144H123.904z" fill="#553A49" p-id="1802"></path><path d="M123.904 693.0432h51.8144v51.8144H123.904z" fill="#553A49" p-id="1803"></path></svg>